<mxfile host="app.diagrams.net" modified="2023-10-20T06:11:31.336Z" agent="Mozilla/5.0 (Windows NT 10.0; Win64; x64) AppleWebKit/537.36 (KHTML, like Gecko) Chrome/118.0.0.0 Safari/537.36" etag="x_mfZKNVRBqS0hePEU9h" version="22.0.5" type="device">
  <diagram name="Page-1" id="sm68INxK4wdz_gyH6aiW">
    <mxGraphModel dx="796" dy="526" grid="1" gridSize="10" guides="1" tooltips="1" connect="1" arrows="1" fold="1" page="1" pageScale="1" pageWidth="850" pageHeight="1100" math="0" shadow="0">
      <root>
        <mxCell id="0" />
        <mxCell id="1" parent="0" />
        <mxCell id="LzYgS3tawF_YMq9uNMIg-1" value="Frontend" style="rounded=0;whiteSpace=wrap;html=1;fillColor=#dae8fc;strokeColor=#6c8ebf;" parent="1" vertex="1">
          <mxGeometry x="60" y="20" width="120" height="60" as="geometry" />
        </mxCell>
        <mxCell id="LzYgS3tawF_YMq9uNMIg-2" value="Backend" style="rounded=0;whiteSpace=wrap;html=1;fillColor=#dae8fc;strokeColor=#6c8ebf;" parent="1" vertex="1">
          <mxGeometry x="520" y="20" width="120" height="60" as="geometry" />
        </mxCell>
        <mxCell id="LzYgS3tawF_YMq9uNMIg-4" style="edgeStyle=orthogonalEdgeStyle;rounded=0;orthogonalLoop=1;jettySize=auto;html=1;entryX=0;entryY=0.5;entryDx=0;entryDy=0;" parent="1" source="LzYgS3tawF_YMq9uNMIg-6" edge="1">
          <mxGeometry relative="1" as="geometry">
            <mxPoint x="520" y="160" as="targetPoint" />
            <Array as="points" />
          </mxGeometry>
        </mxCell>
        <mxCell id="LzYgS3tawF_YMq9uNMIg-3" value="Upload image" style="rounded=1;whiteSpace=wrap;html=1;" parent="1" vertex="1">
          <mxGeometry x="60" y="140" width="120" height="40" as="geometry" />
        </mxCell>
        <mxCell id="LzYgS3tawF_YMq9uNMIg-8" value="" style="edgeStyle=orthogonalEdgeStyle;rounded=0;orthogonalLoop=1;jettySize=auto;html=1;endArrow=none;endFill=0;" parent="1" source="LzYgS3tawF_YMq9uNMIg-3" target="LzYgS3tawF_YMq9uNMIg-6" edge="1">
          <mxGeometry relative="1" as="geometry">
            <mxPoint x="490" y="160" as="targetPoint" />
            <mxPoint x="180" y="160" as="sourcePoint" />
            <Array as="points" />
          </mxGeometry>
        </mxCell>
        <mxCell id="LzYgS3tawF_YMq9uNMIg-6" value="Post&lt;br&gt;/upload" style="rounded=0;whiteSpace=wrap;html=1;fillColor=#fff2cc;strokeColor=#d6b656;" parent="1" vertex="1">
          <mxGeometry x="300" y="143" width="68" height="34" as="geometry" />
        </mxCell>
        <mxCell id="LzYgS3tawF_YMq9uNMIg-11" value="&lt;pre style=&quot;background-color: rgb(43, 43, 43); font-family: &amp;quot;JetBrains Mono&amp;quot;, monospace; font-size: 9.8pt;&quot;&gt;&lt;pre style=&quot;font-family: &amp;quot;JetBrains Mono&amp;quot;, monospace; font-size: 9.8pt;&quot;&gt;&lt;font color=&quot;#bbb529&quot;&gt;@PostMapping&lt;/font&gt;&lt;font color=&quot;#a9b7c6&quot;&gt;(&lt;/font&gt;&lt;span style=&quot;color: rgb(106, 135, 89);&quot;&gt;&quot;/upload&quot;&lt;/span&gt;&lt;font color=&quot;#a9b7c6&quot;&gt;)&lt;br&gt;&lt;/font&gt;&lt;span style=&quot;color: rgb(204, 120, 50);&quot;&gt;public &lt;/span&gt;&lt;font color=&quot;#a9b7c6&quot;&gt;ResponseEntity&amp;lt;String&amp;gt; &lt;/font&gt;&lt;span style=&quot;color: rgb(255, 198, 109);&quot;&gt;uploadFile&lt;/span&gt;&lt;font color=&quot;#a9b7c6&quot;&gt;(&lt;/font&gt;&lt;span style=&quot;color: rgb(187, 181, 41);&quot;&gt;@RequestParam &lt;/span&gt;&lt;font color=&quot;#a9b7c6&quot;&gt;MultipartFile file) { &lt;br&gt;&lt;br&gt;}&lt;/font&gt;&lt;/pre&gt;&lt;/pre&gt;" style="text;whiteSpace=wrap;html=1;" parent="1" vertex="1">
          <mxGeometry x="520" y="107" width="210" height="70" as="geometry" />
        </mxCell>
        <mxCell id="Z6dEWPb34LR758eoYtCP-2" style="edgeStyle=orthogonalEdgeStyle;rounded=0;orthogonalLoop=1;jettySize=auto;html=1;" edge="1" parent="1" source="LzYgS3tawF_YMq9uNMIg-14">
          <mxGeometry relative="1" as="geometry">
            <mxPoint x="120" y="340" as="targetPoint" />
          </mxGeometry>
        </mxCell>
        <mxCell id="LzYgS3tawF_YMq9uNMIg-14" value="Load table" style="rounded=1;whiteSpace=wrap;html=1;" parent="1" vertex="1">
          <mxGeometry x="60" y="240" width="120" height="40" as="geometry" />
        </mxCell>
        <mxCell id="LzYgS3tawF_YMq9uNMIg-16" value="Get&lt;br&gt;/list-images" style="rounded=0;whiteSpace=wrap;html=1;fillColor=#fff2cc;strokeColor=#d6b656;" parent="1" vertex="1">
          <mxGeometry x="334" y="243" width="68" height="34" as="geometry" />
        </mxCell>
        <mxCell id="LzYgS3tawF_YMq9uNMIg-17" style="edgeStyle=orthogonalEdgeStyle;rounded=0;orthogonalLoop=1;jettySize=auto;html=1;entryX=1;entryY=0.5;entryDx=0;entryDy=0;exitX=0;exitY=0.5;exitDx=0;exitDy=0;" parent="1" source="LzYgS3tawF_YMq9uNMIg-16" target="LzYgS3tawF_YMq9uNMIg-14" edge="1">
          <mxGeometry relative="1" as="geometry">
            <mxPoint x="530" y="269.5" as="targetPoint" />
            <mxPoint x="270" y="270" as="sourcePoint" />
            <Array as="points">
              <mxPoint x="300" y="260" />
            </Array>
          </mxGeometry>
        </mxCell>
        <mxCell id="LzYgS3tawF_YMq9uNMIg-24" style="edgeStyle=orthogonalEdgeStyle;rounded=0;orthogonalLoop=1;jettySize=auto;html=1;endArrow=none;endFill=0;" parent="1" edge="1">
          <mxGeometry relative="1" as="geometry">
            <mxPoint x="400" y="260" as="targetPoint" />
            <mxPoint x="520" y="259.5" as="sourcePoint" />
            <Array as="points">
              <mxPoint x="440" y="259" />
              <mxPoint x="370" y="260" />
            </Array>
          </mxGeometry>
        </mxCell>
        <mxCell id="LzYgS3tawF_YMq9uNMIg-23" value="&lt;pre style=&quot;background-color: rgb(43, 43, 43);&quot;&gt;&lt;span style=&quot;color: rgb(187, 181, 41); font-family: &amp;quot;JetBrains Mono&amp;quot;, monospace; font-size: 9.8pt;&quot;&gt;@GetMapping&lt;/span&gt;&lt;font face=&quot;JetBrains Mono, monospace&quot; color=&quot;#a9b7c6&quot;&gt;(&lt;/font&gt;&lt;span style=&quot;color: rgb(106, 135, 89); font-family: &amp;quot;JetBrains Mono&amp;quot;, monospace; font-size: 9.8pt;&quot;&gt;&quot;/list-images&quot;&lt;/span&gt;&lt;font face=&quot;JetBrains Mono, monospace&quot; color=&quot;#a9b7c6&quot;&gt;&lt;span style=&quot;font-size: 9.8pt;&quot;&gt;)&lt;br&gt;public &lt;/span&gt;&lt;/font&gt;&lt;span style=&quot;color: rgb(169, 183, 198); font-family: &amp;quot;JetBrains Mono&amp;quot;, monospace; font-size: 9.8pt;&quot;&gt;ResponseEntity&amp;lt;List&amp;lt;String&amp;gt;&amp;gt; &lt;/span&gt;&lt;span style=&quot;color: rgb(255, 198, 109); font-family: &amp;quot;JetBrains Mono&amp;quot;, monospace; font-size: 9.8pt;&quot;&gt;listImages&lt;/span&gt;&lt;span style=&quot;color: rgb(169, 183, 198); font-family: &amp;quot;JetBrains Mono&amp;quot;, monospace; font-size: 9.8pt;&quot;&gt;()&lt;/span&gt;&lt;font face=&quot;JetBrains Mono, monospace&quot; color=&quot;#a9b7c6&quot;&gt;&lt;span style=&quot;font-size: 9.8pt;&quot;&gt;{ &lt;br&gt;&lt;/span&gt;&lt;span style=&quot;font-size: 13.0667px;&quot;&gt;&lt;br/&gt;&lt;/span&gt;&lt;span style=&quot;font-size: 9.8pt;&quot;&gt;}&lt;/span&gt;&lt;/font&gt;&lt;/pre&gt;" style="text;whiteSpace=wrap;html=1;" parent="1" vertex="1">
          <mxGeometry x="520" y="210" width="430" height="80" as="geometry" />
        </mxCell>
        <mxCell id="LzYgS3tawF_YMq9uNMIg-27" value="&lt;pre style=&quot;background-color: rgb(43, 43, 43); font-family: &amp;quot;JetBrains Mono&amp;quot;, monospace; font-size: 9.8pt;&quot;&gt;&lt;pre style=&quot;font-family: &amp;quot;JetBrains Mono&amp;quot;, monospace; font-size: 9.8pt;&quot;&gt;&lt;font color=&quot;#bbb529&quot;&gt;@GetMapping&lt;/font&gt;&lt;font color=&quot;#a9b7c6&quot;&gt;(&lt;/font&gt;&lt;span style=&quot;color: rgb(106, 135, 89);&quot;&gt;&quot;{filename:&lt;/span&gt;&lt;span style=&quot;color: rgb(106, 135, 89); background-color: rgb(54, 65, 53);&quot;&gt;.+&lt;/span&gt;&lt;span style=&quot;color: rgb(106, 135, 89);&quot;&gt;}&quot;&lt;/span&gt;&lt;font color=&quot;#a9b7c6&quot;&gt;)&lt;/font&gt;&lt;span style=&quot;color: rgb(128, 128, 128);&quot;&gt;&lt;br&gt;&lt;/span&gt;&lt;span style=&quot;color: rgb(204, 120, 50);&quot;&gt;public &lt;/span&gt;&lt;font color=&quot;#a9b7c6&quot;&gt;ResponseEntity&amp;lt;Resource&amp;gt; &lt;/font&gt;&lt;span style=&quot;color: rgb(255, 198, 109);&quot;&gt;getImage&lt;/span&gt;&lt;font color=&quot;#a9b7c6&quot;&gt;(&lt;/font&gt;&lt;span style=&quot;color: rgb(187, 181, 41);&quot;&gt;@PathVariable &lt;/span&gt;&lt;font color=&quot;#a9b7c6&quot;&gt;String filename) { &lt;/font&gt;&lt;/pre&gt;&lt;pre style=&quot;color: rgb(169, 183, 198); font-family: &amp;quot;JetBrains Mono&amp;quot;, monospace; font-size: 9.8pt;&quot;&gt;}&lt;/pre&gt;&lt;/pre&gt;" style="text;whiteSpace=wrap;html=1;" parent="1" vertex="1">
          <mxGeometry x="520" y="310" width="560" height="80" as="geometry" />
        </mxCell>
        <mxCell id="LzYgS3tawF_YMq9uNMIg-28" style="edgeStyle=orthogonalEdgeStyle;rounded=0;orthogonalLoop=1;jettySize=auto;html=1;endArrow=classic;endFill=1;" parent="1" source="LzYgS3tawF_YMq9uNMIg-27" edge="1">
          <mxGeometry relative="1" as="geometry">
            <mxPoint x="280" y="360" as="targetPoint" />
            <mxPoint x="500" y="346" as="sourcePoint" />
            <Array as="points">
              <mxPoint x="320" y="360" />
              <mxPoint x="320" y="360" />
            </Array>
          </mxGeometry>
        </mxCell>
        <mxCell id="Z6dEWPb34LR758eoYtCP-1" value="return image names as array" style="text;whiteSpace=wrap;html=1;align=center;verticalAlign=middle;" vertex="1" parent="1">
          <mxGeometry x="290" y="277" width="156" height="20" as="geometry" />
        </mxCell>
        <mxCell id="Z6dEWPb34LR758eoYtCP-3" value="for each image name" style="text;whiteSpace=wrap;html=1;fillColor=#f5f5f5;fontColor=#333333;strokeColor=#666666;align=center;verticalAlign=middle;" vertex="1" parent="1">
          <mxGeometry x="58.5" y="294" width="123" height="20.5" as="geometry" />
        </mxCell>
        <mxCell id="Z6dEWPb34LR758eoYtCP-4" value="&lt;pre style=&quot;background-color:#2b2b2b;color:#a9b7c6;font-family:&#39;JetBrains Mono&#39;,monospace;font-size:9.8pt;&quot;&gt;&lt;span style=&quot;color:#6a8759;&quot;&gt;img src= &quot;&lt;/span&gt;${&lt;span style=&quot;color:#9876aa;font-weight:bold;font-style:italic;&quot;&gt;baseURL&lt;/span&gt;+imageName}&lt;span style=&quot;color:#6a8759;&quot;&gt;&quot;&lt;/span&gt;&lt;/pre&gt;" style="text;whiteSpace=wrap;html=1;" vertex="1" parent="1">
          <mxGeometry x="20" y="330" width="250" height="70" as="geometry" />
        </mxCell>
        <mxCell id="Z6dEWPb34LR758eoYtCP-7" value="Get&lt;br&gt;/fileName" style="rounded=0;whiteSpace=wrap;html=1;fillColor=#fff2cc;strokeColor=#d6b656;" vertex="1" parent="1">
          <mxGeometry x="368" y="340" width="68" height="34" as="geometry" />
        </mxCell>
        <mxCell id="Z6dEWPb34LR758eoYtCP-9" value="return the resource, using file name" style="text;whiteSpace=wrap;verticalAlign=middle;align=center;" vertex="1" parent="1">
          <mxGeometry x="300" y="374" width="200" height="16" as="geometry" />
        </mxCell>
        <mxCell id="Z6dEWPb34LR758eoYtCP-10" value="upload image as&amp;nbsp;formData" style="text;whiteSpace=wrap;html=1;align=center;verticalAlign=middle;" vertex="1" parent="1">
          <mxGeometry x="256" y="177" width="156" height="20" as="geometry" />
        </mxCell>
      </root>
    </mxGraphModel>
  </diagram>
</mxfile>
